<svg width="223" height="267" viewBox="0 0 223 267" fill="none" xmlns="http://www.w3.org/2000/svg">
<path fill-rule="evenodd" clip-rule="evenodd" d="M154.753 117.328C162.5 119.693 169.571 124.504 174.699 131.562C187.239 148.822 183.413 172.98 166.153 185.52C148.893 198.06 124.735 194.233 112.195 176.974C107.067 169.916 104.676 161.704 104.821 153.606L104.678 153.71L104.876 152.118C104.975 150.363 105.193 148.616 105.529 146.891L110.3 108.643L146.898 115.793C149.557 116.032 152.187 116.545 154.744 117.325L154.754 117.327L154.753 117.328Z" fill="#C0D6DF"/>
<path fill-rule="evenodd" clip-rule="evenodd" d="M115.504 151.994C115.649 160.093 113.258 168.304 108.13 175.362C95.59 192.622 71.4324 196.448 54.1726 183.908C36.9127 171.368 33.0865 147.211 45.6266 129.951C50.7544 122.893 57.825 118.081 65.5721 115.717L65.4288 115.613L67.0036 115.31C68.7041 114.861 70.4328 114.529 72.1769 114.314L110.027 107.033L114.537 144.05C115.131 146.652 115.455 149.312 115.504 151.985L115.505 151.995L115.504 151.994Z" fill="#C0D6DF"/>
<path fill-rule="evenodd" clip-rule="evenodd" d="M70.4069 125.377C62.7493 128.018 54.201 128.281 45.9039 125.585C25.6137 118.993 14.5097 97.1997 21.1024 76.9095C27.695 56.6193 49.4879 45.5153 69.7781 52.108C78.0752 54.8039 84.8362 60.0415 89.4792 66.6787L89.5339 66.5102L90.3087 67.9143C91.2608 69.393 92.1111 70.9344 92.8538 72.5269L111.475 106.274L77.664 122.002C75.3723 123.371 72.9425 124.502 70.4157 125.374L70.4064 125.379L70.4069 125.377Z" fill="#C0D6DF"/>
<path fill-rule="evenodd" clip-rule="evenodd" d="M81.7858 74.2607C76.9082 67.7939 74.0162 59.7453 74.0162 51.0213C74.0162 29.6869 91.3111 12.392 112.645 12.392C133.98 12.392 151.275 29.6869 151.275 51.0212C151.275 59.7453 148.383 67.7939 143.505 74.2607H143.682L142.586 75.4315C141.474 76.7939 140.271 78.0789 138.986 79.2774L112.645 107.416L87.238 80.1198C85.228 78.3633 83.4016 76.4019 81.7915 74.2682L81.7845 74.2607H81.7858Z" fill="#C0D6DF"/>
<path fill-rule="evenodd" clip-rule="evenodd" d="M133.912 69.2858C138.555 62.6486 145.316 57.411 153.613 54.7151C173.904 48.1224 195.696 59.2264 202.289 79.5166C208.882 99.8068 197.778 121.6 177.488 128.192C169.191 130.888 160.642 130.625 152.985 127.984L153.039 128.153L151.587 127.472C149.948 126.836 148.354 126.088 146.817 125.237L111.916 108.88L130.025 76.2817C131.074 73.8273 132.375 71.4842 133.907 69.2935L133.912 69.2846L133.912 69.2858Z" fill="#C0D6DF"/>
<path d="M108.458 82.6525C108.717 79.5327 113.283 79.5327 113.542 82.6525C113.754 85.2069 117.178 85.8881 118.352 83.6092C119.785 80.8259 124.003 82.5734 123.049 85.5547C122.267 87.9958 125.17 89.9357 127.126 88.2792C129.515 86.2561 132.744 89.4851 130.721 91.874C129.064 93.8301 131.004 96.7333 133.445 95.9515C136.427 94.9966 138.174 99.2155 135.391 100.648C133.112 101.822 133.793 105.246 136.347 105.458C139.467 105.717 139.467 110.283 136.347 110.542C133.793 110.754 133.112 114.178 135.391 115.352C138.174 116.785 136.427 121.003 133.445 120.049C131.004 119.267 129.064 122.17 130.721 124.126C132.744 126.515 129.515 129.744 127.126 127.721C125.17 126.064 122.267 128.004 123.048 130.445C124.003 133.427 119.785 135.174 118.352 132.391C117.178 130.112 113.754 130.793 113.542 133.347C113.283 136.467 108.717 136.467 108.458 133.347C108.246 130.793 104.822 130.112 103.648 132.391C102.215 135.174 97.9966 133.427 98.9515 130.445C99.7333 128.004 96.8301 126.064 94.874 127.721C92.4851 129.744 89.2561 126.515 91.2792 124.126C92.9357 122.17 90.9958 119.267 88.5547 120.049C85.5734 121.003 83.8259 116.785 86.6092 115.352C88.8881 114.178 88.2069 110.754 85.6525 110.542C82.5327 110.283 82.5327 105.717 85.6525 105.458C88.2069 105.246 88.8881 101.822 86.6092 100.648C83.8259 99.2155 85.5734 94.9966 88.5547 95.9515C90.9958 96.7333 92.9357 93.8301 91.2792 91.874C89.2561 89.4851 92.4851 86.2561 94.874 88.2792C96.8301 89.9357 99.7333 87.9958 98.9515 85.5547C97.9966 82.5734 102.215 80.8259 103.648 83.6092C104.822 85.8881 108.246 85.2069 108.458 82.6525Z" fill="#4A6FA5"/>
<path d="M140.699 78.3015L111.001 108" stroke="#839788" stroke-width="2"/>
<circle cx="140.699" cy="78.3015" r="6" transform="rotate(45 140.699 78.3015)" fill="#4A6FA5"/>
<path d="M149.803 91.9273L111 108" stroke="#839788" stroke-width="2"/>
<circle cx="149.804" cy="91.9273" r="6" transform="rotate(67.5 149.804 91.9273)" fill="#4A6FA5"/>
<path d="M153 108L111 108" stroke="#839788" stroke-width="2"/>
<circle cx="153" cy="108" r="6" transform="rotate(90 153 108)" fill="#4A6FA5"/>
<path d="M149.803 124.073L111 108" stroke="#839788" stroke-width="2"/>
<circle cx="149.803" cy="124.073" r="6" transform="rotate(112.5 149.803 124.073)" fill="#4A6FA5"/>
<path d="M140.699 137.698L111.001 108" stroke="#839788" stroke-width="2"/>
<circle cx="140.698" cy="137.698" r="6" transform="rotate(135 140.698 137.698)" fill="#4A6FA5"/>
<path d="M127.072 146.803L111 108" stroke="#839788" stroke-width="2"/>
<circle cx="127.073" cy="146.803" r="6" transform="rotate(157.5 127.073 146.803)" fill="#4A6FA5"/>
<path d="M111 150L111 108" stroke="#839788" stroke-width="2"/>
<circle cx="111" cy="150" r="6" transform="rotate(180 111 150)" fill="#4A6FA5"/>
<path d="M94.9277 146.803L111 108" stroke="#839788" stroke-width="2"/>
<circle cx="94.9286" cy="146.803" r="6" transform="rotate(-157.5 94.9286 146.803)" fill="#4A6FA5"/>
<path d="M81.3027 137.698L111.001 108" stroke="#839788" stroke-width="2"/>
<circle cx="81.3027" cy="137.699" r="6" transform="rotate(-135 81.3027 137.699)" fill="#4A6FA5"/>
<path d="M72.1992 124.073L111.002 108" stroke="#839788" stroke-width="2"/>
<circle cx="72.1978" cy="124.073" r="6" transform="rotate(-112.5 72.1978 124.073)" fill="#4A6FA5"/>
<path d="M69 108L111 108" stroke="#839788" stroke-width="2"/>
<circle cx="69" cy="108" r="6" transform="rotate(-90 69 108)" fill="#4A6FA5"/>
<path d="M72.1992 91.9273L111.002 108" stroke="#839788" stroke-width="2"/>
<circle cx="72.1988" cy="91.9273" r="6" transform="rotate(-67.5 72.1988 91.9273)" fill="#4A6FA5"/>
<path d="M81.3027 78.3015L111.001 108" stroke="#839788" stroke-width="2"/>
<circle cx="81.3036" cy="78.3015" r="6" transform="rotate(-45 81.3036 78.3015)" fill="#4A6FA5"/>
<path d="M94.9297 69.1971L111.002 108" stroke="#839788" stroke-width="2"/>
<circle cx="94.9296" cy="69.1971" r="6" transform="rotate(-22.5 94.9296 69.1971)" fill="#4A6FA5"/>
<path d="M111.002 66V108" stroke="#839788" stroke-width="2"/>
<circle cx="111.002" cy="66" r="6" fill="#4A6FA5"/>
<path d="M127.072 69.197L111 108" stroke="#839788" stroke-width="2"/>
<circle cx="127.071" cy="69.197" r="6" transform="rotate(22.5 127.071 69.197)" fill="#4A6FA5"/>
<path d="M40.8105 226.332L36.2988 226.156C33.6621 226.156 31.1426 227.602 28.7402 230.492V249.213C28.7402 249.74 28.5645 250.17 28.2129 250.502C27.8809 250.834 27.4609 251 26.9531 251H20.3906C19.8633 251 19.4336 250.834 19.1016 250.502C18.7695 250.17 18.6035 249.74 18.6035 249.213V220.707C18.6035 220.18 18.7695 219.75 19.1016 219.418C19.4531 219.066 19.8828 218.891 20.3906 218.891H26.9531C27.4805 218.891 27.9102 219.066 28.2422 219.418C28.5742 219.75 28.7402 220.18 28.7402 220.707V222.553C30.7324 221.107 32.6465 220.043 34.4824 219.359C36.3379 218.656 38.7598 218.305 41.748 218.305C42.2754 218.305 42.7051 218.48 43.0371 218.832C43.3887 219.164 43.5645 219.584 43.5645 220.092V224.545C43.5645 225.072 43.3887 225.502 43.0371 225.834C42.7051 226.166 42.2754 226.332 41.748 226.332H40.8105ZM50.1855 247.309C47.1777 244.457 45.6738 240.355 45.6738 235.004C45.6738 229.633 47.1875 225.512 50.2148 222.641C53.2422 219.75 57.4414 218.305 62.8125 218.305C68.1836 218.305 72.373 219.711 75.3809 222.523C78.3887 225.316 79.8926 229.33 79.8926 234.564V236.234C79.8926 236.762 79.7168 237.201 79.3652 237.553C79.0332 237.885 78.6035 238.051 78.0762 238.051H56.0156C56.2109 240.453 56.8945 242.201 58.0664 243.295C59.2578 244.389 61.1523 244.936 63.75 244.936C66.3477 244.936 68.125 244.35 69.082 243.178C70.0391 242.006 71.2207 241.41 72.627 241.391H76.9922C77.5195 241.391 77.9492 241.566 78.2812 241.918C78.6328 242.25 78.8086 242.68 78.8086 243.207C78.8086 248.812 73.4668 251.605 62.7832 251.586C57.3926 251.586 53.1934 250.16 50.1855 247.309ZM55.957 231.869H69.5801C69.3848 227.26 67.1191 224.955 62.7832 224.955C58.4668 224.955 56.1914 227.26 55.957 231.869ZM85.2832 249.213V220.707C85.2832 220.18 85.4492 219.75 85.7812 219.418C86.1328 219.066 86.5625 218.891 87.0703 218.891H93.6328C94.1406 218.891 94.5605 219.066 94.8926 219.418C95.2441 219.75 95.4199 220.18 95.4199 220.707V222.553C98.7793 219.721 102.354 218.305 106.143 218.305C109.951 218.305 113.047 219.467 115.43 221.791C117.812 224.096 119.004 227.631 119.004 232.396V249.213C119.004 249.721 118.828 250.15 118.477 250.502C118.145 250.834 117.715 251 117.188 251H110.654C110.146 251 109.717 250.834 109.365 250.502C109.033 250.15 108.867 249.721 108.867 249.213V232.396C108.867 227.729 107.002 225.395 103.271 225.395C100.83 225.395 98.2129 226.791 95.4199 229.584V249.213C95.4199 249.721 95.2441 250.15 94.8926 250.502C94.5605 250.834 94.1406 251 93.6328 251H87.0703C86.5625 251 86.1328 250.834 85.7812 250.502C85.4492 250.15 85.2832 249.721 85.2832 249.213ZM128.936 247.309C125.928 244.457 124.424 240.355 124.424 235.004C124.424 229.633 125.938 225.512 128.965 222.641C131.992 219.75 136.191 218.305 141.562 218.305C146.934 218.305 151.123 219.711 154.131 222.523C157.139 225.316 158.643 229.33 158.643 234.564V236.234C158.643 236.762 158.467 237.201 158.115 237.553C157.783 237.885 157.354 238.051 156.826 238.051H134.766C134.961 240.453 135.645 242.201 136.816 243.295C138.008 244.389 139.902 244.936 142.5 244.936C145.098 244.936 146.875 244.35 147.832 243.178C148.789 242.006 149.971 241.41 151.377 241.391H155.742C156.27 241.391 156.699 241.566 157.031 241.918C157.383 242.25 157.559 242.68 157.559 243.207C157.559 248.812 152.217 251.605 141.533 251.586C136.143 251.586 131.943 250.16 128.936 247.309ZM134.707 231.869H148.33C148.135 227.26 145.869 224.955 141.533 224.955C137.217 224.955 134.941 227.26 134.707 231.869ZM160.986 221.469C160.83 220.961 160.742 220.541 160.723 220.209C160.723 219.35 161.211 218.91 162.188 218.891H167.637C168.555 218.891 169.375 219.125 170.098 219.594C170.82 220.043 171.318 220.668 171.592 221.469L176.396 237.26L181.143 221.469C181.67 219.75 182.783 218.891 184.482 218.891H189.668C191.387 218.891 192.5 219.75 193.008 221.469L197.754 237.26L202.559 221.469C202.832 220.668 203.33 220.043 204.053 219.594C204.775 219.125 205.596 218.891 206.514 218.891H211.963C212.92 218.891 213.408 219.33 213.428 220.209C213.428 220.561 213.34 220.98 213.164 221.469L204.287 248.422C204.014 249.223 203.525 249.857 202.822 250.326C202.119 250.775 201.367 251 200.566 251H196.436C195.635 251 194.873 250.766 194.15 250.297C193.428 249.809 192.949 249.184 192.715 248.422L187.09 230.961L181.436 248.422C181.201 249.184 180.723 249.809 180 250.297C179.277 250.766 178.516 251 177.715 251H173.584C172.783 251 172.031 250.775 171.328 250.326C170.625 249.857 170.137 249.223 169.863 248.422L160.986 221.469Z" fill="#4F6D7A"/>
</svg>
